PathFileType	4	(X/Y/Z)	C:\Users\Basilio\Documents\Thesis Gigler\squatting_fais\c3dfiles\040\SLS_pre_back5\markers_experimental.trc
DataRate	CameraRate	NumFrames	NumMarkers	Units	OrigDataRate	OrigDataStartFrame	OrigNumFrames
200.000000	200.000000	4	63	mm	200.000000	1101	1469
Frame#	Time	FHD			LBHD			RBHD			C7			T10			CLAV			LSHO			LUUPA			LMUPA			LDUPA			LLEP			LMEP			LRAD			LUL			LRFIN			RSHO			RUPA1			RMUPA			RDUPA			RLEP			RMEP			RRAD			RUL			RUFIN			LASI			RASI			USACR			LSACR			RSACR			LTHI1			LTHI2			LTHI3			LTHI4			LLFC			LMFC			LTIB1			LTIB2			LTIB3			LTIB4			LLMAL			LMMAL			LHEE			LMT1			LMT2			LMT5			RTHI			RTHI2			RTHI3			RTHI4			RLFC			RMFC			RTIB1			RTIB2			RTIB3			RTIB4			RLMAL			RMMAL			RHEE			RMT1			RMT2			RMT5			*61			*62			
		X1	Y1	Z1	X2	Y2	Z2	X3	Y3	Z3	X4	Y4	Z4	X5	Y5	Z5	X6	Y6	Z6	X7	Y7	Z7	X8	Y8	Z8	X9	Y9	Z9	X10	Y10	Z10	X11	Y11	Z11	X12	Y12	Z12	X13	Y13	Z13	X14	Y14	Z14	X15	Y15	Z15	X16	Y16	Z16	X17	Y17	Z17	X18	Y18	Z18	X19	Y19	Z19	X20	Y20	Z20	X21	Y21	Z21	X22	Y22	Z22	X23	Y23	Z23	X24	Y24	Z24	X25	Y25	Z25	X26	Y26	Z26	X27	Y27	Z27	X28	Y28	Z28	X29	Y29	Z29	X30	Y30	Z30	X31	Y31	Z31	X32	Y32	Z32	X33	Y33	Z33	X34	Y34	Z34	X35	Y35	Z35	X36	Y36	Z36	X37	Y37	Z37	X38	Y38	Z38	X39	Y39	Z39	X40	Y40	Z40	X41	Y41	Z41	X42	Y42	Z42	X43	Y43	Z43	X44	Y44	Z44	X45	Y45	Z45	X46	Y46	Z46	X47	Y47	Z47	X48	Y48	Z48	X49	Y49	Z49	X50	Y50	Z50	X51	Y51	Z51	X52	Y52	Z52	X53	Y53	Z53	X54	Y54	Z54	X55	Y55	Z55	X56	Y56	Z56	X57	Y57	Z57	X58	Y58	Z58	X59	Y59	Z59	X60	Y60	Z60	X61	Y61	Z61	X62	Y62	Z62	X63	Y63	Z63	

1102	5.505	-182.3311920166016	1781.556274414063	-1199.63525390625	-303.5541381835938	1724.342407226563	-1240.195434570313	-355.4472045898438	1685.91259765625	-1108.077026367188	-359.1642150878907	1559.232543945313	-1151.800415039063	-357.6558227539063	1238.210693359375	-1137.100463867188	-221.1783447265626	1507.914672851563	-1160.273315429688	-290.1771850585938	1550.417236328125	-1304.751708984375	-143.6702117919922	1464.53466796875	-1396.947143554688	-107.325424194336	1473.472045898438	-1364.1171875	-80.47863006591798	1436.790771484375	-1405.443359375	-30.09594726562501	1398.129272460938	-1410.578857421875	-45.32664489746094	1348.097534179688	-1369.065307617188	242.3990783691407	1401.041870117188	-1304.427368164063	248.2938385009766	1386.775512695313	-1378.805541992188	330.6803283691407	1418.998413085938	-1303.646850585938	-254.8349151611329	1535.564819335938	-1011.997009277344	-110.9933471679688	1448.757690429688	-915.5501098632815	-75.63539886474611	1464.077880859375	-945.3929443359377	-44.64775848388673	1425.775512695313	-910.0305175781252	17.59542846679688	1407.864501953125	-914.9780273437502	4.842614173889161	1346.469116210938	-958.6658935546877	257.3860778808594	1456.84228515625	-1084.465942382813	279.8811035156251	1432.030029296875	-1014.600463867188	350.8418273925782	1472.018920898438	-1097.45068359375	-166.2523651123047	1082.89697265625	-1260.45068359375	-147.0538482666016	1082.983154296875	-1030.26513671875	-344.3476562500001	1107.265502929688	-1123.750610351563	-349.0517578125001	1076.954956054688	-1150.300537109375	-343.2667236328126	1075.382080078125	-1094.121459960938	-286.0824279785157	817.9907226562502	-1286.317993164063	-245.872055053711	743.7253417968751	-1293.560546875	-201.5114288330079	749.1826782226564	-1304.748901367188	-263.8728637695313	690.3580932617189	-1275.17138671875	-239.1471862792969	555.9630126953126	-1264.540161132813	-225.4611358642579	545.9380493164064	-1133.248291015625	-234.5450439453126	329.2965393066407	-1203.020385742188	-312.3746643066407	302.9317626953126	-1235.01708984375	-271.5903015136719	288.1735229492188	-1223.893676757813	-275.7546997070313	212.890365600586	-1180.221801757813	-358.0137939453126	137.6800384521485	-1179.702758789063	-321.8493957519532	154.078598022461	-1101.975219726563	-425.2430725097657	111.5118179321289	-1127.719360351563	-215.6564636230469	57.23915481567384	-1106.390502929688	-217.1403350830079	49.06657028198244	-1152.19482421875	-269.9666137695313	37.73461151123048	-1200.215209960938	-146.1898956298828	811.438171386719	-952.0504150390627	-102.7828063964844	761.2879028320314	-957.027770996094	-71.83985900878908	769.2073974609377	-964.792419433594	-118.2905502319336	679.7224731445314	-957.9230957031252	-116.4134368896485	567.4353027343751	-969.0742187500002	-119.2326354980469	557.5570068359376	-1096.332885742188	-225.8280944824219	418.7908325195314	-995.1593017578127	-329.9765319824219	440.2270507812501	-975.590759277344	-309.2833557128907	399.519012451172	-983.2272949218752	-338.8664245605469	360.3854980468751	-1018.427673339844	-464.3716430664064	340.5000610351563	-1001.096374511719	-439.9036865234376	337.2272338867188	-1087.3994140625	-534.3493041992189	367.9938354492188	-1062.647216796875	-411.5552062988282	185.3222961425782	-1068.776611328125	-415.4234924316407	185.2479858398438	-1029.118896484375	-464.5394897460939	202.1549987792969	-981.1121826171877	nan	nan	nan	nan	nan	nan	
1103	5.51	-181.2089538574219	1781.889282226563	-1200.000244140625	-302.6333923339844	1724.61669921875	-1240.417724609375	-354.4310913085938	1686.198120117188	-1108.270874023438	-358.4393310546876	1559.691284179688	-1151.999267578125	-357.2748718261719	1238.614135742188	-1137.007690429688	-220.6478118896485	1507.994140625	-1160.205688476563	-289.4406127929688	1550.135986328125	-1305.341674804688	-143.8462677001953	1461.72314453125	-1397.87841796875	-107.3943786621094	1470.125122070313	-1365.209838867188	-81.2560501098633	1433.035766601563	-1406.461303710938	-31.24841499328614	1393.677856445313	-1411.753173828125	-47.41869735717774	1344.03271484375	-1370.045166015625	241.8568115234376	1393.563110351563	-1306.9150390625	246.8477172851563	1378.374389648438	-1381.146606445313	329.7590026855469	1410.140747070313	-1306.541381835938	-254.0636749267579	1535.758422851563	-1011.654235839844	-111.6249237060547	1446.34716796875	-914.4267578125002	-76.1487274169922	1461.426391601563	-943.976013183594	-46.08019638061524	1422.238647460938	-908.2193603515627	16.56880760192871	1403.347412109375	-913.0799560546877	2.818793773651123	1342.264038085938	-956.4564208984377	256.0954589843751	1449.779541015625	-1083.1953125	279.2150878906251	1424.914306640625	-1013.211608886719	349.4405822753907	1465.184326171875	-1096.157348632813	-165.9604949951172	1083.17919921875	-1260.197021484375	-146.9291534423828	1083.335693359375	-1029.984252929688	-344.2294311523438	1107.646606445313	-1123.682250976563	-348.8269653320313	1077.238647460938	-1150.114135742188	-343.0202636718751	1075.841918945313	-1094.060791015625	-285.9834594726563	818.4033203125002	-1286.222778320313	-245.5331726074219	744.0324096679689	-1293.405029296875	-201.2842712402344	749.3937988281251	-1304.65625	-263.8113403320313	690.7897949218751	-1275.097290039063	-238.7673797607422	556.2832641601564	-1264.492797851563	-225.2568817138672	546.2721557617189	-1133.148559570313	-234.2258453369141	329.8136596679688	-1203.074096679688	-312.1112976074219	303.2108764648438	-1235.161010742188	-271.8393859863282	288.3497314453126	-1223.547607421875	-275.2796325683594	213.1753692626954	-1180.420654296875	-357.7180175781251	137.9902496337891	-1179.996337890625	-321.7336425781251	154.5845031738282	-1102.140869140625	-425.1700134277345	111.9565887451172	-1127.863403320313	-215.5915222167969	57.23811340332033	-1106.426391601563	-217.2555694580079	48.47642517089845	-1152.364501953125	-269.9540405273438	37.75606155395509	-1200.186401367188	-145.9966430664063	811.799499511719	-952.088073730469	-102.6743316650391	761.3649902343751	-957.0039672851565	-71.61964416503908	769.4968872070315	-964.8300781250002	-118.0509262084961	680.1889038085939	-958.0139770507815	-116.158447265625	567.7246704101564	-969.2048950195315	-118.9946746826172	557.8594970703126	-1096.4716796875	-225.1885986328126	419.1267700195314	-995.292175292969	-329.6012573242188	440.066864013672	-975.6632080078127	-308.8190917968751	399.398406982422	-983.376159667969	-338.3663330078126	360.2231750488282	-1018.420043945313	-463.739471435547	340.3291931152344	-1001.123291015625	-439.1133728027345	336.8140258789063	-1087.436645507813	-533.6222534179689	367.4368896484376	-1062.773193359375	-410.394744873047	185.2333068847657	-1068.64990234375	-414.2388000488282	185.1253662109375	-1029.024536132813	-463.6472473144532	202.0907287597657	-980.905700683594	nan	nan	nan	nan	nan	nan	
1104	5.515	-180.3085632324219	1782.486328125	-1200.441772460938	-302.5462951660157	1725.43115234375	-1240.602905273438	-353.4334106445313	1686.564208984375	-1108.470703125	-357.5908203125001	1560.1943359375	-1152.129638671875	-357.3041076660157	1238.780151367188	-1137.012084960938	-220.3166961669922	1508.156616210938	-1160.121215820313	-288.6407470703126	1549.906494140625	-1305.976806640625	-144.1742706298828	1458.73046875	-1398.796630859375	-107.4929428100586	1466.622802734375	-1366.355590820313	-81.98076629638673	1429.079467773438	-1407.505859375	-32.15270614624024	1388.716186523438	-1412.762573242188	-49.22726058959962	1339.670654296875	-1370.9375	241.5566558837891	1386.46923828125	-1308.794677734375	245.3297576904297	1369.72412109375	-1383.503051757813	329.3327941894532	1401.006713867188	-1309.843994140625	-253.264389038086	1535.765380859375	-1011.188049316406	-112.0537185668946	1443.716674804688	-912.9216308593752	-76.3637161254883	1458.420776367188	-942.5488281250002	-46.70767211914063	1418.8681640625	-906.9272460937502	15.34898567199707	1399.563720703125	-910.5703735351565	1.086217880249024	1338.112548828125	-954.535095214844	254.7639465332032	1442.391357421875	-1081.77685546875	277.6329956054688	1417.155151367188	-1011.820251464844	347.9685668945313	1457.493408203125	-1094.890502929688	-165.7451782226563	1083.490844726563	-1259.955932617188	-146.9579620361328	1083.658935546875	-1029.701904296875	-343.9939880371094	1107.969848632813	-1123.625244140625	-348.5600280761719	1077.680908203125	-1149.987915039063	-342.9104003906251	1076.322143554688	-1093.899169921875	-285.7843017578126	818.7359619140627	-1286.082763671875	-245.3255920410157	744.3356323242189	-1293.2470703125	-201.0280151367188	749.7360839843751	-1304.528076171875	-263.5868835449219	691.1831665039064	-1275.02978515625	-238.7032775878907	556.8394775390626	-1264.329956054688	-225.0092926025391	546.4196777343751	-1133.090209960938	-233.7859497070313	330.9994201660157	-1203.2275390625	-311.8108215332032	303.5641479492188	-1235.1884765625	-271.4358825683594	288.7255249023438	-1223.568603515625	-275.0239562988282	213.386947631836	-1180.380981445313	-358.3921813964844	138.9850463867188	-1180.115478515625	-321.5661010742188	154.8430480957032	-1102.282836914063	-424.9319152832032	112.4009857177735	-1128.1328125	-215.5786132812501	57.19998931884767	-1106.440307617188	-217.2025756835938	48.3789520263672	-1152.444702148438	-269.9441833496094	37.75379180908204	-1200.261962890625	-145.8208465576172	812.1919555664065	-952.0085449218752	-102.4898452758789	761.7578735351564	-956.871032714844	-71.4590530395508	769.7486572265627	-964.7554321289065	-117.9142532348633	680.4571533203126	-958.0325317382815	-115.4817047119141	568.1293945312501	-969.113464355469	-118.6207351684571	558.1909790039064	-1096.633666992188	-224.4279785156251	419.1246948242189	-995.4246215820315	-329.5033264160157	440.1542968750001	-975.2818603515627	-307.8056945800782	399.6015625000001	-983.2647705078127	-337.6713867187501	360.1405334472657	-1018.523559570313	-463.0502014160157	340.0079040527344	-1001.183044433594	-438.4905090332032	336.4422607421876	-1087.453979492188	-533.1301879882814	367.0110778808594	-1062.726196289063	-409.0922851562501	184.3732452392578	-1068.59033203125	-412.6253967285157	184.6997222900391	-1029.121337890625	-462.5722656250001	201.6785125732422	-980.7890625000002	nan	nan	nan	nan	nan	nan	
1105	5.52	-178.5100250244141	1781.926635742188	-1200.251831054688	-301.6118469238282	1725.857177734375	-1240.815673828125	-352.4895935058594	1687.280883789063	-1108.741943359375	-357.6029968261719	1560.196655273438	-1152.443969726563	-356.8730163574219	1239.298828125	-1136.858154296875	-219.6134338378907	1508.39013671875	-1160.168212890625	-287.6660461425782	1549.65380859375	-1306.60986328125	-144.0085601806641	1455.797485351563	-1400.09375	-107.0343093872071	1462.931274414063	-1368.114379882813	-82.92826080322267	1425.049194335938	-1408.681762695313	-34.2352638244629	1384.25439453125	-1414.059448242188	-51.45953369140626	1335.256713867188	-1372.127685546875	239.2821502685547	1377.115966796875	-1312.533325195313	244.0946807861329	1360.427124023438	-1385.795166015625	328.1972045898438	1391.336059570313	-1312.809692382813	-252.3530273437501	1535.831176757813	-1010.749572753906	-112.558837890625	1441.016357421875	-912.0096435546877	-76.64878845214845	1455.35205078125	-941.1411743164065	-48.02333450317384	1415.575927734375	-905.7217407226565	14.29757785797119	1396.153076171875	-908.317321777344	-1.036684632301331	1334.021362304688	-952.4400634765627	253.4686889648438	1434.733642578125	-1080.298828125	275.9682312011719	1409.068969726563	-1011.388732910156	346.7780456542969	1449.365478515625	-1093.6640625	-165.4722595214844	1083.812744140625	-1259.795776367188	-146.8192596435547	1083.906860351563	-1029.537963867188	-343.8730163574219	1108.491943359375	-1123.39111328125	-348.4624938964844	1078.133422851563	-1149.803833007813	-342.8297729492188	1076.578979492188	-1093.572387695313	-285.4712829589844	819.1201171875002	-1285.84033203125	-244.9768524169922	744.5472412109376	-1293.263427734375	-200.8484344482422	750.1378173828126	-1304.42919921875	-263.3544006347657	691.6040039062501	-1274.986572265625	-238.4696044921876	557.0823364257814	-1264.289672851563	-224.7542114257813	546.6887207031251	-1132.995727539063	-233.4642333984376	330.6361694335938	-1203.402709960938	-311.4982910156251	303.9035339355469	-1235.234985351563	-271.1144104003907	288.9410705566407	-1223.679565429688	-275.0584106445313	214.0088958740235	-1180.439208984375	-358.2027282714844	139.3467102050782	-1180.070434570313	-321.1728210449219	155.0724182128907	-1102.338989257813	-424.5310058593751	112.7776031494141	-1128.3056640625	-215.533187866211	57.10594558715822	-1106.432006835938	-217.1277465820313	48.35387802124025	-1152.476928710938	-269.8992309570313	37.75495529174805	-1200.28759765625	-145.5110321044922	812.5783691406252	-951.9641723632815	-102.0355682373047	762.1081542968751	-957.0056762695315	-71.34523010253908	769.9763793945315	-964.777770996094	-117.6510620117188	680.9827270507814	-958.1210937500002	-114.9195175170899	568.3966064453126	-969.3626708984377	-118.3796081542969	558.4833374023439	-1096.724487304688	-224.3254394531251	419.0580139160157	-995.8479614257815	-328.8308715820313	440.0907592773439	-975.5506591796877	-306.9889526367188	399.4775695800782	-983.4634399414065	-337.0762023925782	359.9715881347657	-1018.462585449219	-462.3179931640626	339.5752868652344	-1001.273620605469	-437.7404785156251	336.0789794921876	-1087.460205078125	-532.5242309570314	365.7692565917969	-1062.870727539063	-408.529998779297	184.1537475585938	-1068.612426757813	-411.8489379882814	184.8517608642578	-1028.625610351563	-461.3302001953126	201.4373779296876	-980.729675292969	nan	nan	nan	nan	nan	nan	
